<svg xmlns="http://www.w3.org/2000/svg" viewBox="0 0 204.55 289.16"><g id="Layer_2" data-name="Layer 2"><g id="Layer_1-2" data-name="Layer 1"><path d="M128.67,255.56h0a6.81,6.81,0,0,0-6.71-8H37.26a31.79,31.79,0,0,1-11.68-2.18c1.45-5.86,5.09-11,9.5-15a27.57,27.57,0,0,1,8.37-5.22,14.21,14.21,0,0,0,9.16-13L26.28,185.84a4.35,4.35,0,0,0-4.73-.75A37.62,37.62,0,0,0,0,218.68c0,.28,0,.58,0,.89.48,4.84,4.25,13.74,8.2,22.05.39.85.81,1.69,1.2,2.49,3.53,7.14,6.92,13.47,8.1,15.84,7,13.95,16.27,26.28,30.44,28.79l1.67.21c.94.13,2,.16,3,.21H102.1a4.09,4.09,0,0,0,2.92-1.11l6.92-6.92H53.7a28.59,28.59,0,0,1-23-12,33.64,33.64,0,0,0,15,3.29h70.15l8.08-8.06H45.64a29.36,29.36,0,0,1-23.74-12,37.74,37.74,0,0,0,15.36,3.28ZM8.06,218.68c0-10.2,5.83-19.7,14.58-25.18l8,8a40.21,40.21,0,0,0-13.86,10.61,33.6,33.6,0,0,0-7.31,15A21.49,21.49,0,0,1,8.06,218.68Zm9.85,25.58a24.59,24.59,0,0,1-1.47-8.76A28,28,0,0,1,23,217.23a27.69,27.69,0,0,1,13.89-9.14l8,8a35.14,35.14,0,0,0-15,8A33.15,33.15,0,0,0,17.91,244.26Zm186.57-50a42.45,42.45,0,0,0-.66-4.85,15.51,15.51,0,0,0-.43-1.76c-6.19-22.43-31.29-43.42-55.63-61.26-2.2-1.58-53.27-39-63.93-49.23-11.41-10.64-18.3-20.38-21-29.67A33,33,0,0,1,61,36.5c0-.79,0-1.52.12-2.31a5.85,5.85,0,0,1,.14-1.37A29.71,29.71,0,0,1,63.87,24c.15-.33.31-.64.49-1a9.94,9.94,0,0,1,.75-1.4c.52-.91,1.09-1.84,1.76-2.79.31-.46.64-1,1-1.42a62.38,62.38,0,0,1,6.3-7.23L80.32,4a1.43,1.43,0,0,0,.43-1.17,1.51,1.51,0,0,0-1.49-1.41l-7.1.07a2.36,2.36,0,0,0-1.37.42.43.43,0,0,0-.15.15.59.59,0,0,0-.24.18L15.72,57.34c-.67.62-1.27,1.31-1.86,1.94a14.14,14.14,0,0,0-1.39,1.52c-.77.85-1.52,1.73-2.19,2.58-.45.59-.91,1.16-1.34,1.76a45.22,45.22,0,0,0-2.66,3.92c-.42.64-.76,1.3-1.12,1.94l-.07.07c-.27.57-.6,1.14-.85,1.69a2.15,2.15,0,0,0-.27.61A13.5,13.5,0,0,0,3.22,75c-.31.64-.56,1.31-.82,2-.1.27-.16.6-.28.91-.31.91-.6,1.88-.81,2.79s-.38,1.58-.53,2.4v.07A13.8,13.8,0,0,0,.54,85a.32.32,0,0,0,0,.18,15,15,0,0,0-.18,2,29.4,29.4,0,0,0,0,3.25c0,.25,0,.49,0,.75,0,.43,0,.8.06,1.23,1.8,22.64,24.45,42.71,52.22,63.51L77.43,173.8c29.92,21.89,59.48,44.15,65.36,67.88l0,0a32,32,0,0,1-2.32,24.3.13.13,0,0,1,0,.11l0,0c-.25.55-.49,1.12-.77,1.69a37.23,37.23,0,0,1-3,5.05,13.72,13.72,0,0,1-.91,1.27,33.77,33.77,0,0,1-3.15,3.67c-.18.18-.64.61-1.21,1.21L124.62,286a3.37,3.37,0,0,1-.21.31.1.1,0,0,1,0,.09A1.2,1.2,0,0,0,125.5,288l7.56-.1a1.14,1.14,0,0,0,.85-.36c2.09-2.15,13.32-13.77,26-27.16.54-.57,1.09-1.12,1.67-1.73,2.18-2.3,4.42-4.66,6.64-7.06.91-1,1.83-2,2.76-2.89,1.7-1.85,3.38-3.64,5.07-5.41L181,238s.07-.06.07-.1c1.31-1.45,2.61-2.87,3.88-4.21a3.43,3.43,0,0,0,.46-.52c.93-1,1.85-2,2.73-3,.45-.51.88-1,1.27-1.42s.82-.91,1.24-1.37c1.19-1.34,2.33-2.61,3.35-3.79.67-.81,1.35-1.55,1.94-2.25a42.12,42.12,0,0,0,4.91-6.37A46.38,46.38,0,0,0,204.48,194.25Zm-52.94,62.06a86.19,86.19,0,0,0,.35-9.5c-2.54-31.05-39.77-58-75.94-84-17.17-12.44-33.59-24.13-46.37-36.17C16.08,113.54,9.16,102.23,8.06,91.63a31.79,31.79,0,0,1,5.47-19.36,20.85,20.85,0,0,0,0,7c2.19,27.37,35.4,51.46,70.82,77C119,181.11,154.82,207,157,234.4A40.94,40.94,0,0,1,151.54,256.31Zm13.13-13.53a37.28,37.28,0,0,0,.36-9.11c-2.54-31.06-39.77-58.08-75.94-84C72,137.27,55.5,125.58,42.75,113.54,29.22,100.4,22.3,89.09,21.55,78.49c-.74-6.57,1.09-13.14,5.12-19.35a20.75,20.75,0,0,0,0,7c2.19,27.37,35.4,51.46,70.82,77,34.69,24.79,70.48,50.73,72.67,78.1A37.29,37.29,0,0,1,164.67,242.78Zm13.14-13.14a76.84,76.84,0,0,0,.36-9.11c-2.54-31.06-39.77-58.08-75.94-84-17.13-12.39-33.6-24.08-46-36.12C42.36,87.26,35.44,76,34.68,65.35c-.7-6.57,1.1-12.79,5.13-19a19.06,19.06,0,0,0,0,6.22C42,80.32,75.25,104.41,110.63,130c34.69,24.82,70.48,50.4,72.67,78.13C183.64,215,181.85,222.32,177.81,229.64ZM191,216.86a83.46,83.46,0,0,0,.36-9.47c-2.54-31.06-39.77-58.07-75.91-84C98.24,111,81.81,99.29,69.39,87.26,55.5,74.1,48.57,62.81,47.82,52.21A32.42,32.42,0,0,1,53,32.86a21.22,21.22,0,0,0,0,6.56c2.19,27.76,35.78,51.85,71.21,77.4,34.3,24.82,70.09,50.4,72.28,77.77C197.17,201.91,195.34,209.58,191,216.86Zm8-147.65c-.42-4.85-4.17-13.75-8.12-21.94-.46-1-1-2.06-1.46-3-3.28-6.67-6.43-12.5-7.55-14.65-4.17-8-6.58-15.2-12-20.29-.49-.46-1-.88-1.49-1.28a35.39,35.39,0,0,0-22.24-8H102a3.31,3.31,0,0,0-2.54,1.09L92.55,8h52.77a30.66,30.66,0,0,1,18.26,6.22,29.89,29.89,0,0,1,4.73,5.13,38.33,38.33,0,0,0-14.59-2.94L89,16.45l-8,8h72.71A29.23,29.23,0,0,1,177.08,36.5a35.67,35.67,0,0,0-15-3.3H76.22v.08a7.22,7.22,0,0,0,7.24,8h78.68a24.14,24.14,0,0,1,11.31,2.55A29.12,29.12,0,0,1,164.67,58a26.08,26.08,0,0,1-10.1,6.29,12.56,12.56,0,0,0-1.79.78,11.24,11.24,0,0,0-3.11,2.32,12.53,12.53,0,0,0-2.26,3.15,13,13,0,0,0-1.34,5.73c4.52,4.58,8.26,8.43,11.41,11.65L159,89.51c.94,1,1.87,1.94,2.72,2.79s1.65,1.7,2.4,2.43c.34.4.7.75,1.06,1.1l1,1c1,1,1.85,1.8,2.58,2.55,4,3.88,5.37,4.7,6.86,4.7a3.85,3.85,0,0,0,1.84-.39A37,37,0,0,0,199,70.09,6.55,6.55,0,0,0,199,69.21ZM162.49,81l-8.41-8.37a40.21,40.21,0,0,0,16.08-8.41,36.35,36.35,0,0,0,11.29-19,30.45,30.45,0,0,1,1.1,8.4A27.22,27.22,0,0,1,176,71.57C172.35,76,167.61,79.59,162.49,81Zm13.89,14.23-7.67-8a38,38,0,0,0,13.84-10.61,38.43,38.43,0,0,0,7-14.58,19.62,19.62,0,0,1,1.43,8A28.51,28.51,0,0,1,176.38,95.27Z"/></g></g></svg>